<svg xmlns="http://www.w3.org/2000/svg" viewBox="0 0 300 288">
  <style>
    .s1 {
      fill: none;
      stroke-linecap: round;
      stroke-miterlimit: 10;
      stroke-width: 2px;
      stroke: #003087;
    }
    .s2 {
      fill: none;
      stroke-linecap: round;
      stroke-miterlimit: 10;
      stroke-width: 2px;
      stroke: #e8edee;
    }
    .f1 {
      fill: #003087;
    }
    .f2 {
      fill: #035db8;
    }
    .f3 {
      fill: #f1e778;
    }
    .f4 {
      fill: #e8edee;
    }
    .f5 {
      fill: #fff;
    }
  </style>
  <rect class="f4" width="118.26" height="223.98" x="89.69" y="98.54" rx="15" ry="15"/>
  <path class="f1" d="M192.92 99.54c7.75 0 14.03 6.27 14.03 14v193.98c0 7.73-6.28 14-14.03 14h-88.2a14 14 0 0 1-14.03-14V113.54c0-7.73 6.28-14 14.03-14zm0-2h-88.2a16.04 16.04 0 0 0-16.04 16v193.98c0 8.82 7.2 16 16.04 16h88.2c8.84 0 16.04-7.18 16.04-16V113.54c0-8.82-7.2-16-16.04-16"/>
  <path class="f2" d="m141.45 167.85-5.27 24.8h-8.28l-5.2-17.16h-.07l-3.46 17.16h-6.27l5.31-24.8h8.3l5.1 17.2h.07l3.5-17.2zm23.66 0-5.17 24.8h-6.66l2.21-10.62h-7.88l-2.21 10.62h-6.66l5.17-24.8h6.66l-1.95 9.49h7.88l1.96-9.49zm19.14.67-1.6 4.94a13 13 0 0 0-5.49-1.13c-2.64 0-4.78.39-4.78 2.38 0 3.51 9.66 2.2 9.66 9.74 0 6.86-6.38 8.64-12.16 8.64-2.57 0-5.52-.61-7.7-1.28l1.56-5.05c1.31.85 3.96 1.42 6.13 1.42s5.31-.39 5.31-2.95c0-3.98-9.66-2.49-9.66-9.48 0-6.4 5.63-8.32 11.08-8.32 3.07 0 5.95.32 7.63 1.1z"/>
  <path class="f1" d="M159.99 113.98h-22.33a3 3 0 1 1 0-6h22.33a3 3 0 1 1 0 6"/>
  <path class="s1" d="M90.52 50.37a117 117 0 0 0-36.91 33.62m-18.85 91.35a117 117 0 0 0 20.64 45.42m81.25 46.1a117 117 0 0 0 49.67-5.55m69.07-62.84a117 117 0 0 0 10.06-48.84m-38.57-84.96a117 117 0 0 0-43.46-24.64"/>
  <ellipse class="f4" cx="217.31" cy="245.16" rx="34.89" ry="34.88"/>
  <ellipse class="f4" cx="148.84" cy="34.88" rx="34.89" ry="34.88"/>
  <ellipse class="f4" cx="38.24" cy="115.17" rx="34.89" ry="34.88"/>
  <rect class="f1" width="79.05" height="45.01" y="92.66" rx="3" ry="3"/>
  <path class="f1" d="m154.66 45-.34-.03a2 2 0 0 0-1.88 1.32l-3.59 9.86-3.59-9.86a2 2 0 0 0-1.88-1.32q-.17 0-.34.03c-7.61 1.32-13.04 5.05-15.54 10.43 5.39 5.61 12.97 9.1 21.37 9.1s15.98-3.49 21.37-9.1c-2.51-5.38-7.94-9.11-15.54-10.43h-.02Z"/>
  <ellipse class="f4" cx="259.19" cy="115.17" rx="34.89" ry="34.88"/>
  <ellipse class="f4" cx="80.49" cy="245.16" rx="34.89" ry="34.88"/>
  <path class="f1" d="M217.31 215.52a29.65 29.65 0 1 1-29.66 29.64 29.65 29.65 0 0 1 29.66-29.64m0-2c-17.46 0-31.66 14.2-31.66 31.64s14.2 31.64 31.66 31.64 31.66-14.2 31.66-31.64-14.2-31.64-31.66-31.64M148.84 5.24a29.65 29.65 0 1 1-29.66 29.64 29.65 29.65 0 0 1 29.66-29.64m0-2c-17.46 0-31.66 14.2-31.66 31.64s14.2 31.64 31.66 31.64 31.66-14.2 31.66-31.64-14.2-31.64-31.66-31.64M38.24 85.52a29.65 29.65 0 1 1-29.66 29.64 29.65 29.65 0 0 1 29.66-29.64m0-2c-17.46 0-31.66 14.2-31.66 31.64s14.2 31.64 31.66 31.64 31.66-14.2 31.66-31.64-14.2-31.64-31.66-31.64m220.95 2a29.65 29.65 0 1 1-29.66 29.64 29.65 29.65 0 0 1 29.66-29.64m0-2c-17.46 0-31.66 14.2-31.66 31.64s14.2 31.64 31.66 31.64 31.66-14.2 31.66-31.64-14.2-31.64-31.66-31.64m-178.7 132a29.65 29.65 0 1 1-29.66 29.64 29.65 29.65 0 0 1 29.66-29.64m0-2c-17.46 0-31.66 14.2-31.66 31.64s14.2 31.64 31.66 31.64 31.66-14.2 31.66-31.64-14.2-31.64-31.66-31.64"/>
  <path class="s1" d="m269.07 104.9-3.39-1.88c-.74-.41-1.87-1.19-1.87-2.03v-.96a3 3 0 0 0 3-3v-.97a3 3 0 0 0-3-3h-10.28a3 3 0 0 0-3 3v.97a3 3 0 0 0 3 3v.96c0 .84-1.13 1.62-1.87 2.03l-3.39 1.88a4.7 4.7 0 0 0-2.4 4.06v25.94a2.33 2.33 0 0 0 2.33 2.33h20.94a2.33 2.33 0 0 0 2.33-2.33v-25.94c0-1.69-.91-3.24-2.4-4.06h.01Z"/>
  <path class="f3" d="M256.4 130.48a4 4 0 0 1-4.01-4v-12.6a4 4 0 0 1 4.01-4h15.05v20.6z"/>
  <path class="f1" d="M270.46 110.88v18.6h-14.05a3 3 0 0 1-3-3v-12.6a3 3 0 0 1 3-3zm2.01-2h-16.06a5 5 0 0 0-5 5v12.6a5 5 0 0 0 5 5h16.06z"/>
  <path class="f1" d="M270.72 121.82h-5.76c-.55 0-1-.45-1-1s.45-1 1-1h5.76c.55 0 1 .45 1 1s-.45 1-1 1m0-4.87h-8.77c-.55 0-1-.45-1-1s.45-1 1-1h8.77c.55 0 1 .45 1 1s-.45 1-1 1"/>
  <path class="s1" d="M263.81 100.03v.96c0 .84 1.13 1.62 1.87 2.03l3.39 1.88a4.7 4.7 0 0 1 2.4 4.06v25.94a2.33 2.33 0 0 1-2.33 2.33H248.2a2.33 2.33 0 0 1-2.33-2.33v-25.94c0-1.69.91-3.24 2.4-4.06l3.39-1.88c.74-.41 1.87-1.19 1.87-2.03v-.96h10.28-.01Z"/>
  <path class="f3" d="M77.27 262.02a2 2 0 0 1-2-2v-8.95h-8.95a2 2 0 0 1-2-2v-6.42c0-1.1.9-2 2-2h8.95v-8.95c0-1.1.9-2 2-2h6.41a2 2 0 0 1 2 2v8.95h8.95a2 2 0 0 1 2 2v6.42a2 2 0 0 1-2 2h-8.95v8.95a2 2 0 0 1-2 2z"/>
  <path class="f1" d="M83.7 230.71a1 1 0 0 1 1 1v9.95h9.95a1 1 0 0 1 1 1v6.42a1 1 0 0 1-1 1H84.7v9.95a1 1 0 0 1-1 1h-6.41a1 1 0 0 1-1-1v-9.95h-9.95a1 1 0 0 1-1-1v-6.42a1 1 0 0 1 1-1h9.95v-9.95a1 1 0 0 1 1-1zm0-2h-6.41a3 3 0 0 0-3.01 3v7.95h-7.95a3 3 0 0 0-3.01 3v6.42c0 1.65 1.35 3 3.01 3h7.95v7.95c0 1.65 1.35 3 3.01 3h6.41a3 3 0 0 0 3.01-3v-7.95h7.95a3 3 0 0 0 3.01-3v-6.42c0-1.65-1.35-3-3.01-3h-7.95v-7.95c0-1.65-1.35-3-3.01-3"/>
  <path class="f3" d="m38.2 104.24-5.84 5.69-2.8-2.86 6.36-6.2a1 1 0 0 0 .27-.63v-6.49h4.01v6.49q0 .36.27.62l6.36 6.2-2.8 2.86z"/>
  <path class="f1" d="M39.2 94.75v5.49c0 .5.21.99.57 1.34l5.65 5.5-1.4 1.43-5.64-5.5q-.1-.1-.18-.21-.08.11-.18.21l-5.64 5.49-1.4-1.43 5.64-5.5c.37-.35.57-.84.57-1.35v-5.49h2m2.01-1.98h-6.01v7.43l-5.61 5.47-1.43 1.4 1.4 1.43 1.4 1.43 1.4 1.43 1.43-1.4 4.42-4.31 4.42 4.31 1.43 1.4 1.4-1.43 1.4-1.43 1.4-1.43-1.43-1.4-5.61-5.47zh-.02Z"/>
  <path class="f4" d="M18.2 131.7c-3.73 0-5.87-2.43-5.87-6.66 0-5.71 4.65-17.47 9.41-21.67 1.66-1.47 3.54-2.28 5.26-2.28 2.5 0 4.47 1.65 5.28 4.4 1.33 4.5 1.73 13.25 1.43 17.55-.25 3.52-3.4 6.27-6.23 7.06a55 55 0 0 1-8.61 1.57z"/>
  <path class="f1" d="M27 102.09c1.94 0 3.6 1.22 4.32 3.69 1.28 4.35 1.69 12.91 1.39 17.2-.22 3.17-3.22 5.53-5.5 6.17a53 53 0 0 1-8.41 1.53l-.6.02c-3.46 0-4.87-2.39-4.87-5.66 0-5.63 4.64-17.01 9.07-20.92 1.52-1.35 3.15-2.03 4.6-2.03m0-2c-2 0-4.05.87-5.93 2.53-5.02 4.43-9.74 16.39-9.74 22.42 0 4.72 2.64 7.66 6.88 7.66q.36 0 .74-.03c2.53-.19 6.59-.98 8.81-1.6 3.17-.89 6.68-3.98 6.97-7.96.3-4.27-.05-13.11-1.46-17.9-.95-3.21-3.29-5.12-6.24-5.12h-.01Z"/>
  <path class="f4" d="M73.58 100.09h-8.77c-.55 0-1-.45-1-1s.45-1 1-1h8.77c.55 0 1 .45 1 1s-.45 1-1 1m-3 4.87h-5.76c-.55 0-1-.45-1-1s.45-1 1-1h5.76c.55 0 1 .45 1 1s-.45 1-1 1"/>
  <circle class="s1" cx="148.84" cy="31.56" r="10.7"/>
  <rect class="s1 f1" width="16.32" height="6.98" x="250.51" y="93.05" rx="3" ry="3"/>
  <circle class="f5" cx="197.03" cy="254.19" r="1.16"/>
  <circle class="f5" cx="204.79" cy="261.94" r="1.16"/>
  <circle class="f5" cx="212.53" cy="251.09" r="1.16"/>
  <circle class="f5" cx="220.29" cy="252.64" r="1.16"/>
  <circle class="f5" cx="228.04" cy="247.21" r="1.16"/>
  <circle class="f5" cx="236.12" cy="230.93" r="1.16"/>
  <path class="s1" d="m197.03 254.19 7.76 7.75 7.74-10.85 7.76 1.55 7.75-5.43 8.08-16.28"/>
  <path class="s2" d="M158.27 59.95v-6.91m3.45 3.45h-6.9"/>
  <path class="f4" d="M58.2 131.7q-.33 0-.67-.03a54 54 0 0 1-8.61-1.57c-2.84-.8-5.98-3.54-6.23-7.06-.3-4.29.1-13.05 1.43-17.55.81-2.76 2.8-4.4 5.28-4.4 1.73 0 3.6.81 5.26 2.28 4.75 4.2 9.4 15.96 9.4 21.67 0 4.23-2.13 6.66-5.87 6.66Z"/>
  <path class="f1" d="M49.4 102.09c1.45 0 3.08.68 4.6 2.03 4.43 3.91 9.07 15.29 9.07 20.92 0 3.27-1.4 5.66-4.87 5.66l-.6-.02c-2.4-.18-6.29-.94-8.41-1.53-2.29-.64-5.28-3-5.5-6.17-.3-4.29.1-12.84 1.39-17.2.73-2.47 2.38-3.69 4.32-3.69m0-2c-2.97 0-5.3 1.91-6.24 5.12-1.41 4.79-1.76 13.63-1.46 17.9.28 3.97 3.8 7.07 6.97 7.96a55 55 0 0 0 8.81 1.6l.74.03c4.24 0 6.88-2.93 6.88-7.66 0-6.03-4.72-17.99-9.74-22.42-1.87-1.65-3.93-2.53-5.92-2.53h-.02Z"/>
  <path class="f3" d="M167.01 28.5c-.4 0-1.15-.29-1.15-1.38v-3.46a3.3 3.3 0 0 1-2.34-3.17V6.81a4.1 4.1 0 0 1 4.09-4.08h23.34a4.1 4.1 0 0 1 4.09 4.08v12.93a4.1 4.1 0 0 1-4.09 4.08h-18.88l-4.58 4.66-.49.03h.01Z"/>
  <path class="f1" d="M190.96 3.73c1.7 0 3.09 1.38 3.09 3.08v12.93c0 1.7-1.38 3.08-3.09 3.08h-18.98q-.31 0-.54.23l-4.36 4.43s-.04.03-.07.03c-.07 0-.15-.1-.15-.38v-3.66a.75.75 0 0 0-.57-.72 2.3 2.3 0 0 1-1.75-2.25V6.82c0-1.7 1.38-3.08 3.09-3.08h23.34m-.01-2.01h-23.34a5.1 5.1 0 0 0-5.09 5.08v13.68c0 1.64.92 3.1 2.33 3.84v2.79c0 1.56 1.08 2.38 2.15 2.38.56 0 1.09-.22 1.49-.63l3.99-4.06h18.46a5.1 5.1 0 0 0 5.09-5.08V6.8a5.1 5.1 0 0 0-5.09-5.08z"/>
  <path class="f3" d="M197.03 256.43a2.26 2.26 0 0 1-2.26-2.25 2.26 2.26 0 1 1 2.26 2.25"/>
  <path class="f1" d="M197.03 252.94a1.25 1.25 0 1 1 0 2.5 1.25 1.25 0 0 1 0-2.5m0-2a3.26 3.26 0 0 0-3.26 3.25 3.26 3.26 0 0 0 6.52 0 3.26 3.26 0 0 0-3.26-3.25"/>
  <path class="f3" d="M204.79 264.18a2.26 2.26 0 0 1-2.26-2.25 2.26 2.26 0 1 1 2.26 2.25"/>
  <path class="f1" d="M204.79 260.69a1.25 1.25 0 1 1 0 2.5 1.25 1.25 0 0 1 0-2.5m0-2a3.26 3.26 0 0 0-3.26 3.25 3.26 3.26 0 0 0 6.52 0 3.26 3.26 0 0 0-3.26-3.25"/>
  <path class="f3" d="M212.53 253.33a2.26 2.26 0 0 1-2.26-2.25 2.26 2.26 0 1 1 2.26 2.25"/>
  <path class="f1" d="M212.53 249.84a1.25 1.25 0 1 1 0 2.5 1.25 1.25 0 0 1 0-2.5m0-2a3.26 3.26 0 0 0-3.26 3.25 3.26 3.26 0 0 0 6.52 0 3.26 3.26 0 0 0-3.26-3.25"/>
  <path class="f3" d="M220.29 254.88a2.26 2.26 0 0 1-2.26-2.25 2.26 2.26 0 1 1 2.26 2.25"/>
  <path class="f1" d="M220.29 251.39a1.25 1.25 0 1 1 0 2.5 1.25 1.25 0 0 1 0-2.5m0-2a3.26 3.26 0 0 0-3.26 3.25 3.26 3.26 0 0 0 6.52 0 3.26 3.26 0 0 0-3.26-3.25"/>
  <path class="f3" d="M228.04 249.46a2.26 2.26 0 0 1-2.26-2.25 2.26 2.26 0 1 1 2.26 2.25"/>
  <path class="f1" d="M228.04 245.97a1.25 1.25 0 1 1 0 2.5 1.25 1.25 0 0 1 0-2.5m0-2a3.26 3.26 0 0 0-3.26 3.25 3.26 3.26 0 0 0 6.52 0 3.26 3.26 0 0 0-3.26-3.25"/>
  <path class="f3" d="M236.12 233.17a2.26 2.26 0 0 1-2.26-2.25 2.26 2.26 0 1 1 2.26 2.25"/>
  <path class="f1" d="M236.12 229.68a1.25 1.25 0 1 1 0 2.5 1.25 1.25 0 0 1 0-2.5m0-2a3.26 3.26 0 0 0-3.26 3.25 3.26 3.26 0 0 0 6.52 0 3.26 3.26 0 0 0-3.26-3.25"/>
  <circle class="f1" cx="179.29" cy="13.17" r="1.5"/>
  <circle class="f1" cx="174.28" cy="13.17" r="1.5"/>
  <circle class="f1" cx="184.3" cy="13.17" r="1.5"/>
</svg>