<?xml version="1.0" encoding="UTF-8"?>
<svg id="Layer_1" xmlns="http://www.w3.org/2000/svg" xmlns:xlink="http://www.w3.org/1999/xlink" version="1.1" viewBox="0 0 300 288">
  <!-- Generator: Adobe Illustrator 29.5.1, SVG Export Plug-In . SVG Version: 2.1.0 Build 141)  -->
  <defs>
    <style>
      .st0, .st1, .st2, .st3 {
        fill: none;
      }

      .st4 {
        fill: #e8edee;
      }

      .st1 {
        stroke: #e8edee;
      }

      .st1, .st5, .st2, .st3 {
        stroke-miterlimit: 10;
        stroke-width: 2px;
      }

      .st5, .st2, .st3 {
        stroke: #003087;
      }

      .st5, .st6 {
        fill: #003087;
      }

      .st2 {
        stroke-linecap: round;
      }

      .st7 {
        fill: #fff;
      }

      .st8 {
        fill: #f1e778;
      }

      .st9 {
        fill: #035db8;
      }

      .st10 {
        clip-path: url(#clippath);
      }
    </style>
    <clipPath id="clippath">
      <rect class="st0" x="83.68" y="88.02" width="130.29" height="199.98"/>
    </clipPath>
  </defs>
  <g id="Layer_3">
    <g class="st10">
      <g>
        <rect class="st4" x="89.69" y="98.54" width="118.26" height="223.98" rx="15" ry="15"/>
        <path class="st6" d="M192.92,99.54c7.75,0,14.03,6.27,14.03,14v193.98c0,7.73-6.28,14-14.03,14h-88.2c-7.75,0-14.03-6.27-14.03-14V113.54c0-7.73,6.28-14,14.03-14h88.2M192.92,97.54h-88.2c-8.84,0-16.04,7.18-16.04,16v193.98c0,8.82,7.2,16,16.04,16h88.2c8.84,0,16.04-7.18,16.04-16V113.54c0-8.82-7.2-16-16.04-16h0Z"/>
      </g>
    </g>
    <path class="st9" d="M141.45,167.85l-5.27,24.8h-8.28l-5.2-17.16h-.07l-3.46,17.16h-6.27l5.31-24.8h8.3l5.1,17.2h.07l3.5-17.2h6.27ZM165.11,167.85l-5.17,24.8h-6.66l2.21-10.62h-7.88l-2.21,10.62h-6.66l5.17-24.8h6.66l-1.95,9.49h7.88l1.96-9.49h6.66-.01ZM184.25,168.52l-1.6,4.94c-1.28-.6-3.03-1.13-5.49-1.13-2.64,0-4.78.39-4.78,2.38,0,3.51,9.66,2.2,9.66,9.74,0,6.86-6.38,8.64-12.16,8.64-2.57,0-5.52-.61-7.7-1.28l1.56-5.05c1.31.85,3.96,1.42,6.13,1.42s5.31-.39,5.31-2.95c0-3.98-9.66-2.49-9.66-9.48,0-6.4,5.63-8.32,11.08-8.32,3.07,0,5.95.32,7.63,1.1h.01Z"/>
    <path class="st6" d="M159.99,113.98h-22.33c-1.66,0-3.01-1.34-3.01-3s1.34-3,3.01-3h22.33c1.66,0,3.01,1.34,3.01,3s-1.34,3-3.01,3Z"/>
  </g>
  <path class="st2" d="M90.52,50.37c-14.6,8.43-27.2,19.93-36.91,33.62"/>
  <path class="st2" d="M34.76,175.34c3.53,16.46,10.59,31.97,20.64,45.42"/>
  <path class="st2" d="M136.65,266.86c16.78,1.74,33.76-.17,49.67-5.55"/>
  <path class="st2" d="M255.39,198.47c6.85-15.39,10.26-32.08,10.06-48.84"/>
  <path class="st2" d="M226.88,64.67c-12.55-11.25-27.41-19.65-43.46-24.64"/>
  <ellipse class="st4" cx="217.31" cy="245.16" rx="34.89" ry="34.88"/>
  <ellipse class="st4" cx="148.84" cy="34.88" rx="34.89" ry="34.88"/>
  <ellipse class="st4" cx="38.24" cy="115.17" rx="34.89" ry="34.88"/>
  <rect class="st6" y="92.66" width="79.05" height="45.01" rx="3" ry="3"/>
  <path class="st6" d="M154.66,45c-.11-.02-.23-.03-.34-.03-.83,0-1.59.52-1.88,1.32l-3.59,9.86-3.59-9.86c-.29-.8-1.05-1.32-1.88-1.32-.11,0-.23,0-.34.03-7.61,1.32-13.04,5.05-15.54,10.43,5.39,5.61,12.97,9.1,21.37,9.1s15.98-3.49,21.37-9.1c-2.51-5.38-7.94-9.11-15.54-10.43h-.02,0Z"/>
  <ellipse class="st4" cx="259.19" cy="115.17" rx="34.89" ry="34.88"/>
  <ellipse class="st4" cx="80.49" cy="245.16" rx="34.89" ry="34.88"/>
  <path class="st6" d="M217.31,215.52c16.38,0,29.66,13.27,29.66,29.64s-13.28,29.64-29.66,29.64-29.66-13.27-29.66-29.64,13.28-29.64,29.66-29.64M217.31,213.52c-17.46,0-31.66,14.2-31.66,31.64s14.2,31.64,31.66,31.64,31.66-14.2,31.66-31.64-14.2-31.64-31.66-31.64h0Z"/>
  <path class="st6" d="M148.84,5.24c16.38,0,29.66,13.27,29.66,29.64s-13.28,29.64-29.66,29.64-29.66-13.27-29.66-29.64,13.28-29.64,29.66-29.64M148.84,3.24c-17.46,0-31.66,14.2-31.66,31.64s14.2,31.64,31.66,31.64,31.66-14.2,31.66-31.64-14.2-31.64-31.66-31.64h0Z"/>
  <path class="st6" d="M38.24,85.52c16.38,0,29.66,13.27,29.66,29.64s-13.28,29.64-29.66,29.64-29.66-13.27-29.66-29.64,13.28-29.64,29.66-29.64M38.24,83.52c-17.46,0-31.66,14.2-31.66,31.64s14.2,31.64,31.66,31.64,31.66-14.2,31.66-31.64-14.2-31.64-31.66-31.64h0Z"/>
  <path class="st6" d="M259.19,85.52c16.38,0,29.66,13.27,29.66,29.64s-13.28,29.64-29.66,29.64-29.66-13.27-29.66-29.64,13.28-29.64,29.66-29.64M259.19,83.52c-17.46,0-31.66,14.2-31.66,31.64s14.2,31.64,31.66,31.64,31.66-14.2,31.66-31.64-14.2-31.64-31.66-31.64h0Z"/>
  <path class="st6" d="M80.49,215.52c16.38,0,29.66,13.27,29.66,29.64s-13.28,29.64-29.66,29.64-29.66-13.27-29.66-29.64,13.28-29.64,29.66-29.64M80.49,213.52c-17.46,0-31.66,14.2-31.66,31.64s14.2,31.64,31.66,31.64,31.66-14.2,31.66-31.64-14.2-31.64-31.66-31.64h0Z"/>
  <path class="st0" d="M269.07,104.9l-3.39-1.88c-.74-.41-1.87-1.19-1.87-2.03v-.96c1.65,0,3-1.34,3-3v-.97c0-1.66-1.34-3-3-3h-10.28c-1.65,0-3,1.34-3,3v.97c0,1.66,1.34,3,3,3v.96c0,.84-1.13,1.62-1.87,2.03l-3.39,1.88c-1.47.82-2.4,2.38-2.4,4.06v25.94c0,1.28,1.04,2.33,2.33,2.33h20.94c1.28,0,2.33-1.04,2.33-2.33v-25.94c0-1.69-.91-3.24-2.4-4.06,0,0,.01,0,.01,0Z"/>
  <g>
    <path class="st8" d="M256.4,130.48c-2.2,0-4.01-1.79-4.01-4v-12.6c0-2.21,1.79-4,4.01-4h15.05v20.6h-15.05Z"/>
    <path class="st6" d="M270.46,110.88v18.6h-14.05c-1.65,0-3-1.34-3-3v-12.6c0-1.66,1.34-3,3-3h14.05M272.47,108.88h-16.06c-2.76,0-5,2.24-5,5v12.6c0,2.76,2.25,5,5,5h16.06v-22.6h0Z"/>
  </g>
  <path class="st6" d="M270.72,121.82h-5.76c-.55,0-1-.45-1-1s.45-1,1-1h5.76c.55,0,1,.45,1,1s-.45,1-1,1Z"/>
  <path class="st6" d="M270.72,116.95h-8.77c-.55,0-1-.45-1-1s.45-1,1-1h8.77c.55,0,1,.45,1,1s-.45,1-1,1Z"/>
  <path class="st3" d="M263.81,100.03v.96c0,.84,1.13,1.62,1.87,2.03l3.39,1.88c1.47.82,2.4,2.38,2.4,4.06v25.94c0,1.28-1.04,2.33-2.33,2.33h-20.94c-1.28,0-2.33-1.04-2.33-2.33v-25.94c0-1.69.91-3.24,2.4-4.06l3.39-1.88c.74-.41,1.87-1.19,1.87-2.03v-.96h10.28s-.01,0-.01,0Z"/>
  <g>
    <path class="st8" d="M77.27,262.02c-1.1,0-2-.9-2-2v-8.95h-8.95c-1.1,0-2-.9-2-2v-6.42c0-1.1.9-2,2-2h8.95v-8.95c0-1.1.9-2,2-2h6.41c1.1,0,2,.9,2,2v8.95h8.95c1.1,0,2,.9,2,2v6.42c0,1.1-.9,2-2,2h-8.95v8.95c0,1.1-.9,2-2,2h-6.41Z"/>
    <path class="st6" d="M83.7,230.71c.55,0,1,.45,1,1v9.95h9.95c.55,0,1,.45,1,1v6.42c0,.55-.45,1-1,1h-9.95v9.95c0,.55-.45,1-1,1h-6.41c-.55,0-1-.45-1-1v-9.95h-9.95c-.55,0-1-.45-1-1v-6.42c0-.55.45-1,1-1h9.95v-9.95c0-.55.45-1,1-1h6.41M83.7,228.71h-6.41c-1.65,0-3.01,1.35-3.01,3v7.95h-7.95c-1.65,0-3.01,1.35-3.01,3v6.42c0,1.65,1.35,3,3.01,3h7.95v7.95c0,1.65,1.35,3,3.01,3h6.41c1.65,0,3.01-1.35,3.01-3v-7.95h7.95c1.65,0,3.01-1.35,3.01-3v-6.42c0-1.65-1.35-3-3.01-3h-7.95v-7.95c0-1.65-1.35-3-3.01-3h0Z"/>
  </g>
  <g>
    <path class="st8" d="M38.2,104.24l-5.84,5.69-2.8-2.86,6.36-6.2c.17-.17.27-.4.27-.63v-6.49h4.01v6.49c0,.23.1.46.27.62l6.36,6.2-2.8,2.86-5.84-5.69h0Z"/>
    <path class="st6" d="M39.2,94.75v5.49c0,.5.21.99.57,1.34l5.65,5.5-1.4,1.43-5.64-5.5c-.07-.06-.12-.14-.18-.21-.06.07-.11.15-.18.21l-5.64,5.49-1.4-1.43,5.64-5.5c.37-.35.57-.84.57-1.35v-5.49h2M41.2,92.75h-6.01v7.43l-5.61,5.47-1.43,1.4,1.4,1.43,1.4,1.43,1.4,1.43,1.43-1.4,4.42-4.31,4.42,4.31,1.43,1.4,1.4-1.43,1.4-1.43,1.4-1.43-1.43-1.4-5.61-5.47v-7.43h-.02Z"/>
  </g>
  <g>
    <path class="st4" d="M18.2,131.7c-3.73,0-5.87-2.43-5.87-6.66,0-5.71,4.65-17.47,9.41-21.67,1.66-1.47,3.54-2.28,5.26-2.28,2.5,0,4.47,1.65,5.28,4.4,1.33,4.5,1.73,13.25,1.43,17.55-.25,3.52-3.4,6.27-6.23,7.06-2.16.61-6.14,1.38-8.61,1.57-.23.02-.45.03-.67.03h0Z"/>
    <path class="st6" d="M27,102.09c1.94,0,3.6,1.22,4.32,3.69,1.28,4.35,1.69,12.91,1.39,17.2-.22,3.17-3.22,5.53-5.5,6.17-2.11.59-6.02,1.36-8.41,1.53-.21.02-.4.02-.6.02-3.46,0-4.87-2.39-4.87-5.66,0-5.63,4.64-17.01,9.07-20.92,1.52-1.35,3.15-2.03,4.6-2.03M27,100.09c-2,0-4.05.87-5.93,2.53-5.02,4.43-9.74,16.39-9.74,22.42,0,4.72,2.64,7.66,6.88,7.66.24,0,.49,0,.74-.03,2.53-.19,6.59-.98,8.81-1.6,3.17-.89,6.68-3.98,6.97-7.96.3-4.27-.05-13.11-1.46-17.9-.95-3.21-3.29-5.12-6.24-5.12,0,0-.01,0-.01,0Z"/>
  </g>
  <path class="st4" d="M73.58,100.09h-8.77c-.55,0-1-.45-1-1s.45-1,1-1h8.77c.55,0,1,.45,1,1s-.45,1-1,1Z"/>
  <path class="st4" d="M70.58,104.96h-5.76c-.55,0-1-.45-1-1s.45-1,1-1h5.76c.55,0,1,.45,1,1s-.45,1-1,1Z"/>
  <ellipse class="st3" cx="148.84" cy="31.56" rx="10.7" ry="10.7"/>
  <rect class="st5" x="250.51" y="93.05" width="16.32" height="6.98" rx="3" ry="3"/>
  <circle class="st7" cx="197.03" cy="254.19" r="1.16"/>
  <circle class="st7" cx="204.79" cy="261.94" r="1.16"/>
  <circle class="st7" cx="212.53" cy="251.09" r="1.16"/>
  <circle class="st7" cx="220.29" cy="252.64" r="1.16"/>
  <circle class="st7" cx="228.04" cy="247.21" r="1.16"/>
  <circle class="st7" cx="236.12" cy="230.93" r="1.16"/>
  <polyline class="st3" points="197.03 254.19 204.79 261.94 212.53 251.09 220.29 252.64 228.04 247.21 236.12 230.93"/>
  <line class="st1" x1="158.27" y1="59.95" x2="158.27" y2="53.04"/>
  <line class="st1" x1="161.72" y1="56.49" x2="154.82" y2="56.49"/>
  <g>
    <path class="st4" d="M58.2,131.7c-.22,0-.44,0-.67-.03-2.47-.18-6.44-.96-8.61-1.57-2.84-.8-5.98-3.54-6.23-7.06-.3-4.29.1-13.05,1.43-17.55.81-2.76,2.8-4.4,5.28-4.4,1.73,0,3.6.81,5.26,2.28,4.75,4.2,9.4,15.96,9.4,21.67,0,4.23-2.13,6.66-5.87,6.66h0Z"/>
    <path class="st6" d="M49.4,102.09c1.45,0,3.08.68,4.6,2.03,4.43,3.91,9.07,15.29,9.07,20.92,0,3.27-1.4,5.66-4.87,5.66-.19,0-.39,0-.6-.02-2.4-.18-6.29-.94-8.41-1.53-2.29-.64-5.28-3-5.5-6.17-.3-4.29.1-12.84,1.39-17.2.73-2.47,2.38-3.69,4.32-3.69M49.4,100.09h0c-2.97,0-5.3,1.91-6.24,5.12-1.41,4.79-1.76,13.63-1.46,17.9.28,3.97,3.8,7.07,6.97,7.96,2.21.62,6.28,1.42,8.81,1.6.26.02.5.03.74.03,4.24,0,6.88-2.93,6.88-7.66,0-6.03-4.72-17.99-9.74-22.42-1.87-1.65-3.93-2.53-5.92-2.53,0,0-.02,0-.02,0Z"/>
  </g>
  <g>
    <path class="st8" d="M167.01,28.5c-.4,0-1.15-.29-1.15-1.38v-3.46c-1.38-.43-2.34-1.71-2.34-3.17V6.81c0-2.25,1.83-4.08,4.09-4.08h23.34c2.26,0,4.09,1.83,4.09,4.08v12.93c0,2.25-1.83,4.08-4.09,4.08h-18.88l-4.58,4.66-.49.03h.01Z"/>
    <path class="st6" d="M190.96,3.73c1.7,0,3.09,1.38,3.09,3.08v12.93c0,1.7-1.38,3.08-3.09,3.08h-18.98c-.2,0-.4.08-.54.23l-4.36,4.43s-.04.03-.07.03c-.07,0-.15-.1-.15-.38v-3.66c0-.35-.24-.63-.57-.72-1.01-.26-1.75-1.17-1.75-2.25V6.82c0-1.7,1.38-3.08,3.09-3.08h23.34M190.96,1.73h-23.34c-2.81,0-5.09,2.28-5.09,5.08v13.68c0,1.64.92,3.1,2.33,3.84v2.79c0,1.56,1.08,2.38,2.15,2.38.56,0,1.09-.22,1.49-.63l3.99-4.06h18.46c2.81,0,5.09-2.28,5.09-5.08V6.8c0-2.8-2.29-5.08-5.09-5.08h.01Z"/>
  </g>
  <g>
    <path class="st8" d="M197.03,256.43c-1.24,0-2.26-1.01-2.26-2.25s1.01-2.25,2.26-2.25,2.26,1.01,2.26,2.25-1.01,2.25-2.26,2.25Z"/>
    <path class="st6" d="M197.03,252.94c.69,0,1.25.56,1.25,1.25s-.56,1.25-1.25,1.25-1.25-.56-1.25-1.25.56-1.25,1.25-1.25M197.03,250.94c-1.79,0-3.26,1.46-3.26,3.25s1.46,3.25,3.26,3.25,3.26-1.46,3.26-3.25-1.46-3.25-3.26-3.25h0Z"/>
  </g>
  <g>
    <path class="st8" d="M204.79,264.18c-1.24,0-2.26-1.01-2.26-2.25s1.01-2.25,2.26-2.25,2.26,1.01,2.26,2.25-1.01,2.25-2.26,2.25Z"/>
    <path class="st6" d="M204.79,260.69c.69,0,1.25.56,1.25,1.25s-.56,1.25-1.25,1.25-1.25-.56-1.25-1.25.56-1.25,1.25-1.25M204.79,258.69c-1.79,0-3.26,1.46-3.26,3.25s1.46,3.25,3.26,3.25,3.26-1.46,3.26-3.25-1.46-3.25-3.26-3.25h0Z"/>
  </g>
  <g>
    <path class="st8" d="M212.53,253.33c-1.24,0-2.26-1.01-2.26-2.25s1.01-2.25,2.26-2.25,2.26,1.01,2.26,2.25-1.01,2.25-2.26,2.25Z"/>
    <path class="st6" d="M212.53,249.84c.69,0,1.25.56,1.25,1.25s-.56,1.25-1.25,1.25-1.25-.56-1.25-1.25.56-1.25,1.25-1.25M212.53,247.84c-1.79,0-3.26,1.46-3.26,3.25s1.46,3.25,3.26,3.25,3.26-1.46,3.26-3.25-1.46-3.25-3.26-3.25h0Z"/>
  </g>
  <g>
    <path class="st8" d="M220.29,254.88c-1.24,0-2.26-1.01-2.26-2.25s1.01-2.25,2.26-2.25,2.26,1.01,2.26,2.25-1.01,2.25-2.26,2.25Z"/>
    <path class="st6" d="M220.29,251.39c.69,0,1.25.56,1.25,1.25s-.56,1.25-1.25,1.25-1.25-.56-1.25-1.25.56-1.25,1.25-1.25M220.29,249.39c-1.79,0-3.26,1.46-3.26,3.25s1.46,3.25,3.26,3.25,3.26-1.46,3.26-3.25-1.46-3.25-3.26-3.25h0Z"/>
  </g>
  <g>
    <path class="st8" d="M228.04,249.46c-1.24,0-2.26-1.01-2.26-2.25s1.01-2.25,2.26-2.25,2.26,1.01,2.26,2.25-1.01,2.25-2.26,2.25Z"/>
    <path class="st6" d="M228.04,245.97c.69,0,1.25.56,1.25,1.25s-.56,1.25-1.25,1.25-1.25-.56-1.25-1.25.56-1.25,1.25-1.25M228.04,243.97c-1.79,0-3.26,1.46-3.26,3.25s1.46,3.25,3.26,3.25,3.26-1.46,3.26-3.25-1.46-3.25-3.26-3.25h0Z"/>
  </g>
  <g>
    <path class="st8" d="M236.12,233.17c-1.24,0-2.26-1.01-2.26-2.25s1.01-2.25,2.26-2.25,2.26,1.01,2.26,2.25-1.01,2.25-2.26,2.25Z"/>
    <path class="st6" d="M236.12,229.68c.69,0,1.25.56,1.25,1.25s-.56,1.25-1.25,1.25-1.25-.56-1.25-1.25.56-1.25,1.25-1.25M236.12,227.68c-1.79,0-3.26,1.46-3.26,3.25s1.46,3.25,3.26,3.25,3.26-1.46,3.26-3.25-1.46-3.25-3.26-3.25h0Z"/>
  </g>
  <circle class="st6" cx="179.29" cy="13.17" r="1.5"/>
  <circle class="st6" cx="174.28" cy="13.17" r="1.5"/>
  <circle class="st6" cx="184.3" cy="13.17" r="1.5"/>
</svg>